# xmcd CD database file
#
# Track frame offsets:
#	150
#	18820
#	43937
#	64540
#	87235
#	107902
#	124775
#	166235
#	180090
#	214320
#	232895
#	254067
#	277650
#	291987
#	310387
#
# Disc length: 4350 seconds
#
# Revision: 2
# Processed by: cddbd v1.5.2PL0 Copyright (c) Steve Scherf et al.
# Submitted via: CDex 1.51
#
DISCID=cd10fc0f
DTITLE=Albert Collins - Frostbite - Don't Lose Your Cool
DYEAR=1900
DGENRE=Blues
TTITLE0=If You Love Me Like You Say
TTITLE1=Blue Monday Hangover
TTITLE2=I Got A Problem
TTITLE3=The Highway Is Like A Woman
TTITLE4=Ego Trip
TTITLE5=Don't Go Reaching Across My Plate
TTITLE6=Snowed In
TTITLE7=Get To Gettin'
TTITLE8=My Mind Is Trying To Leave Me Too
TTITLE9=Broke
TTITLE10=Don't Lose Your Cool
TTITLE11=When A Guitar Playes The Blues
TTITLE12=But I Was Cool!
TTITLE13=Melt Down
TTITLE14=Quicksand
EXTD=
EXTT0=
EXTT1=
EXTT2=
EXTT3=
EXTT4=
EXTT5=
EXTT6=
EXTT7=
EXTT8=
EXTT9=
EXTT10=
EXTT11=
EXTT12=
EXTT13=
EXTT14=
PLAYORDER=
